<?xml version="1.0" encoding="iso-8859-1"?>
<!-- Generator: Adobe Illustrator 19.0.0, SVG Export Plug-In . SVG Version: 6.00 Build 0)  -->
<svg version="1.1" id="Layer_1" xmlns="http://www.w3.org/2000/svg" xmlns:xlink="http://www.w3.org/1999/xlink" x="0px" y="0px"
	 viewBox="0 0 512.003 512.003" style="enable-background:new 0 0 512.003 512.003;" xml:space="preserve">
<path style="fill:#ACD4F3;" d="M492.209,317.442l-78.22,20.959l-47.366-27.347l52.535-14.076c4.071-1.091,6.487-5.276,5.396-9.348
	c-1.09-4.071-5.274-6.484-9.348-5.397l-67.279,18.028l-45.042-26.006c2.552-6.057,3.966-12.706,3.966-19.68
	c0-6.093-1.08-11.937-3.054-17.356l44.131-25.48l67.278,18.028c0.661,0.177,1.327,0.262,1.98,0.262c3.37,0,6.454-2.249,7.366-5.659
	c1.091-4.071-1.325-8.257-5.396-9.348l-52.535-14.076l47.366-27.347l78.22,20.958c0.661,0.177,1.327,0.262,1.98,0.262
	c3.37,0,6.454-2.249,7.366-5.659c1.091-4.071-1.325-8.256-5.396-9.348l-63.477-17.008l42.228-24.381
	c3.65-2.107,4.901-6.775,2.793-10.425c-2.106-3.65-6.776-4.902-10.425-2.793l-42.226,24.383l17.008-63.476
	c1.091-4.071-1.325-8.256-5.396-9.348c-4.073-1.092-8.257,1.326-9.348,5.397l-20.958,78.22l-47.366,27.347l14.076-52.535
	c1.091-4.071-1.325-8.256-5.396-9.348c-4.073-1.093-8.257,1.325-9.348,5.397l-18.027,67.279l-43.832,25.307
	c-7.834-10.285-19.488-17.509-32.831-19.526v-50.04l49.252-49.253c2.98-2.981,2.98-7.813,0-10.793
	c-2.982-2.981-7.813-2.981-10.794,0l-38.458,38.459V77.979l57.261-57.261c2.981-2.981,2.981-7.813,0-10.793
	c-2.982-2.981-7.813-2.981-10.794,0l-46.467,46.468V7.632c0-4.215-3.416-7.632-7.632-7.632c-4.216,0-7.632,3.417-7.632,7.632v48.761
	L201.903,9.926c-2.982-2.981-7.813-2.981-10.794,0s-2.981,7.813,0,10.793l57.261,57.261v54.694l-38.458-38.459
	c-2.981-2.981-7.812-2.981-10.794,0c-2.981,2.981-2.981,7.813,0,10.793l49.252,49.253v50.04
	c-13.343,2.017-24.996,9.241-32.831,19.526l-43.831-25.306l-18.028-67.279c-1.09-4.071-5.275-6.487-9.348-5.397
	c-4.071,1.091-6.487,5.276-5.396,9.348l14.076,52.536l-47.366-27.347l-20.958-78.22c-1.09-4.07-5.275-6.485-9.348-5.396
	c-4.071,1.091-6.487,5.276-5.396,9.348l17.009,63.476l-42.229-24.381c-3.652-2.109-8.319-0.857-10.425,2.793
	c-2.107,3.65-0.857,8.318,2.793,10.425l42.229,24.381l-63.476,17.008c-4.071,1.091-6.487,5.276-5.396,9.348
	c0.913,3.41,3.997,5.659,7.366,5.659c0.654,0,1.319-0.084,1.98-0.262l78.22-20.958l47.366,27.347l-52.537,14.076
	c-4.071,1.091-6.487,5.276-5.396,9.348c0.913,3.41,3.997,5.659,7.366,5.659c0.654,0,1.319-0.084,1.98-0.262l67.279-18.028
	l44.13,25.479c-1.974,5.419-3.054,11.264-3.054,17.357c0,6.975,1.413,13.624,3.966,19.681l-45.041,26.005l-67.28-18.028
	c-4.074-1.09-8.256,1.325-9.348,5.397c-1.091,4.071,1.325,8.256,5.396,9.348l52.537,14.076l-47.366,27.347l-78.22-20.959
	c-4.073-1.088-8.257,1.325-9.348,5.397c-1.091,4.071,1.325,8.256,5.396,9.348l63.476,17.008l-42.229,24.381
	c-3.65,2.107-4.901,6.775-2.793,10.425c1.413,2.448,3.979,3.817,6.616,3.817c1.294,0,2.608-0.33,3.809-1.024l42.229-24.381
	l-17.009,63.476c-1.091,4.071,1.325,8.257,5.396,9.348c0.661,0.177,1.327,0.262,1.98,0.262c3.37,0,6.454-2.249,7.366-5.659
	l20.959-78.22l47.366-27.347l-14.076,52.536c-1.091,4.071,1.325,8.256,5.396,9.348c0.661,0.177,1.327,0.262,1.98,0.262
	c3.37,0,6.454-2.249,7.366-5.659l18.027-67.278l45.393-26.207c7.783,9.244,18.786,15.69,31.27,17.577v52.891l-49.252,49.252
	c-2.981,2.981-2.981,7.813,0,10.793c2.982,2.981,7.813,2.981,10.794,0l38.458-38.458v54.694l-57.261,57.261
	c-2.981,2.981-2.981,7.813,0,10.793c2.981,2.981,7.812,2.981,10.794,0l46.468-46.468v48.761c0,4.215,3.416,7.632,7.632,7.632
	s7.632-3.417,7.632-7.632V455.61l46.467,46.468c1.491,1.49,3.445,2.236,5.397,2.236c1.953,0,3.907-0.745,5.397-2.236
	c2.981-2.981,2.981-7.813,0-10.793l-57.261-57.261V379.33l38.458,38.458c1.491,1.49,3.445,2.236,5.397,2.236
	c1.953,0,3.907-0.745,5.397-2.236c2.981-2.98,2.981-7.813,0-10.793l-49.252-49.252v-52.891c12.483-1.888,23.486-8.333,31.269-17.578
	l45.393,26.208l18.027,67.278c0.913,3.41,3.997,5.659,7.366,5.659c0.654,0,1.319-0.084,1.98-0.262
	c4.071-1.091,6.487-5.276,5.396-9.348l-14.076-52.536l47.366,27.347l20.958,78.22c0.913,3.41,3.997,5.659,7.366,5.659
	c0.654,0,1.319-0.084,1.98-0.262c4.071-1.091,6.487-5.276,5.396-9.348l-17.008-63.477l42.229,24.382
	c1.203,0.694,2.514,1.024,3.809,1.024c2.638,0,5.203-1.37,6.616-3.817c2.107-3.65,0.857-8.318-2.793-10.425l-42.229-24.381
	l63.476-17.008c4.071-1.091,6.487-5.276,5.396-9.348C500.467,318.766,496.281,316.354,492.209,317.442z M256.003,290.16
	c-19.621,0-35.585-15.963-35.585-35.584s15.964-35.584,35.585-35.584c19.621,0,35.584,15.963,35.584,35.584
	C291.587,274.197,275.624,290.16,256.003,290.16z"/>
<g>
</g>
<g>
</g>
<g>
</g>
<g>
</g>
<g>
</g>
<g>
</g>
<g>
</g>
<g>
</g>
<g>
</g>
<g>
</g>
<g>
</g>
<g>
</g>
<g>
</g>
<g>
</g>
<g>
</g>
</svg>
